<svg width="1512" height="982" viewBox="0 0 1512 982" fill="none" xmlns="http://www.w3.org/2000/svg">
<rect width="1512" height="982" fill="#1E1E1E"/>
<rect width="1512" height="982" fill="white"/>
<path d="M748 698C748 686.954 756.954 678 768 678H1052C1063.05 678 1072 686.954 1072 698V982H748V698Z" fill="#7F7A71"/>
<rect x="228" y="55" width="206" height="316" fill="#7F7A71"/>
<circle cx="331" cy="772" r="75" fill="#7F7A71"/>
<rect x="977" y="130" width="210" height="115" fill="#7F7A71"/>
<path fill-rule="evenodd" clip-rule="evenodd" d="M838.557 180L636.85 180L636.85 277.797L602.255 277.797L561.21 277.797L561.21 362.082L602.255 362.082L636.85 362.082L636.85 453.445L606.36 453.445L278 453.445L278 604L606.36 604L606.36 573.117L812.171 573.117L812.171 604L832.107 604L1032.64 604L1032.64 533.87L1017.4 533.87L1017.4 523.575L1086 523.575L1086 519.071L1086 511.994L1086 432.212L864.944 432.212L864.944 453.445L838.557 453.445L838.557 362.082L869.048 362.082L910.093 362.082L910.093 277.797L869.048 277.797L838.557 277.797L838.557 180Z" fill="#7F7A71"/>
<rect x="426" y="704" width="218" height="100" fill="#7F7A71"/>
<rect x="1092" y="504" width="282" height="103" fill="#7F7A71"/>
<rect x="57" y="539" width="103" height="67" fill="#7F7A71"/>
<rect x="950" y="357" width="56" height="54" fill="#7F7A71"/>
<rect x="959" y="274" width="56" height="54" fill="#7F7A71"/>
<rect x="1092" y="274" width="56" height="54" fill="#7F7A71"/>
<rect x="1154" y="274" width="56" height="54" fill="#7F7A71"/>
<rect x="473" y="820" width="171" height="50" fill="#7F7A71"/>
<rect x="1336" y="441" width="118" height="44" fill="#7F7A71"/>
<path d="M656.892 512.444H651.654L650.754 515H648.612L653.094 502.472H655.47L659.952 515H657.792L656.892 512.444ZM656.316 510.77L654.282 504.956L652.23 510.77H656.316ZM661.217 508.718C661.217 507.494 661.499 506.396 662.063 505.424C662.639 504.452 663.413 503.696 664.385 503.156C665.369 502.604 666.443 502.328 667.607 502.328C668.939 502.328 670.121 502.658 671.153 503.318C672.197 503.966 672.953 504.89 673.421 506.09H670.955C670.631 505.43 670.181 504.938 669.605 504.614C669.029 504.29 668.363 504.128 667.607 504.128C666.779 504.128 666.041 504.314 665.393 504.686C664.745 505.058 664.235 505.592 663.863 506.288C663.503 506.984 663.323 507.794 663.323 508.718C663.323 509.642 663.503 510.452 663.863 511.148C664.235 511.844 664.745 512.384 665.393 512.768C666.041 513.14 666.779 513.326 667.607 513.326C668.363 513.326 669.029 513.164 669.605 512.84C670.181 512.516 670.631 512.024 670.955 511.364H673.421C672.953 512.564 672.197 513.488 671.153 514.136C670.121 514.784 668.939 515.108 667.607 515.108C666.431 515.108 665.357 514.838 664.385 514.298C663.413 513.746 662.639 512.984 662.063 512.012C661.499 511.04 661.217 509.942 661.217 508.718ZM683.365 512.444H678.127L677.227 515H675.085L679.567 502.472H681.943L686.425 515H684.265L683.365 512.444ZM682.789 510.77L680.755 504.956L678.703 510.77H682.789ZM692.459 502.49C693.791 502.49 694.955 502.748 695.951 503.264C696.959 503.768 697.733 504.5 698.273 505.46C698.825 506.408 699.101 507.518 699.101 508.79C699.101 510.062 698.825 511.166 698.273 512.102C697.733 513.038 696.959 513.758 695.951 514.262C694.955 514.754 693.791 515 692.459 515H688.373V502.49H692.459ZM692.459 513.326C693.923 513.326 695.045 512.93 695.825 512.138C696.605 511.346 696.995 510.23 696.995 508.79C696.995 507.338 696.605 506.204 695.825 505.388C695.045 504.572 693.923 504.164 692.459 504.164H690.425V513.326H692.459ZM703.187 504.146V507.818H707.507V509.492H703.187V513.326H708.047V515H701.135V502.472H708.047V504.146H703.187ZM723.751 502.49V515H721.699V506.432L717.883 515H716.461L712.627 506.432V515H710.575V502.49H712.789L717.181 512.3L721.555 502.49H723.751ZM728.5 502.49V515H726.448V502.49H728.5ZM730.51 508.718C730.51 507.494 730.792 506.396 731.356 505.424C731.932 504.452 732.706 503.696 733.678 503.156C734.662 502.604 735.736 502.328 736.9 502.328C738.232 502.328 739.414 502.658 740.446 503.318C741.49 503.966 742.246 504.89 742.714 506.09H740.248C739.924 505.43 739.474 504.938 738.898 504.614C738.322 504.29 737.656 504.128 736.9 504.128C736.072 504.128 735.334 504.314 734.686 504.686C734.038 505.058 733.528 505.592 733.156 506.288C732.796 506.984 732.616 507.794 732.616 508.718C732.616 509.642 732.796 510.452 733.156 511.148C733.528 511.844 734.038 512.384 734.686 512.768C735.334 513.14 736.072 513.326 736.9 513.326C737.656 513.326 738.322 513.164 738.898 512.84C739.474 512.516 739.924 512.024 740.248 511.364H742.714C742.246 512.564 741.49 513.488 740.446 514.136C739.414 514.784 738.232 515.108 736.9 515.108C735.724 515.108 734.65 514.838 733.678 514.298C732.706 513.746 731.932 512.984 731.356 512.012C730.792 511.04 730.51 509.942 730.51 508.718ZM756.487 508.574C757.159 508.694 757.729 509.048 758.197 509.636C758.665 510.224 758.899 510.89 758.899 511.634C758.899 512.27 758.731 512.846 758.395 513.362C758.071 513.866 757.597 514.268 756.973 514.568C756.349 514.856 755.623 515 754.795 515H749.791V502.49H754.561C755.413 502.49 756.145 502.634 756.757 502.922C757.369 503.21 757.831 503.6 758.143 504.092C758.455 504.572 758.611 505.112 758.611 505.712C758.611 506.432 758.419 507.032 758.035 507.512C757.651 507.992 757.135 508.346 756.487 508.574ZM751.843 507.746H754.381C755.053 507.746 755.575 507.596 755.947 507.296C756.331 506.984 756.523 506.54 756.523 505.964C756.523 505.4 756.331 504.962 755.947 504.65C755.575 504.326 755.053 504.164 754.381 504.164H751.843V507.746ZM754.615 513.326C755.311 513.326 755.857 513.158 756.253 512.822C756.649 512.486 756.847 512.018 756.847 511.418C756.847 510.806 756.637 510.32 756.217 509.96C755.797 509.6 755.239 509.42 754.543 509.42H751.843V513.326H754.615ZM763.163 502.49V510.464C763.163 511.412 763.409 512.126 763.901 512.606C764.405 513.086 765.101 513.326 765.989 513.326C766.889 513.326 767.585 513.086 768.077 512.606C768.581 512.126 768.833 511.412 768.833 510.464V502.49H770.885V510.428C770.885 511.448 770.663 512.312 770.219 513.02C769.775 513.728 769.181 514.256 768.437 514.604C767.693 514.952 766.871 515.126 765.971 515.126C765.071 515.126 764.249 514.952 763.505 514.604C762.773 514.256 762.191 513.728 761.759 513.02C761.327 512.312 761.111 511.448 761.111 510.428V502.49H763.163ZM775.609 502.49V515H773.557V502.49H775.609ZM780.355 513.344H784.585V515H778.303V502.49H780.355V513.344ZM790.387 502.49C791.719 502.49 792.883 502.748 793.879 503.264C794.887 503.768 795.661 504.5 796.201 505.46C796.753 506.408 797.029 507.518 797.029 508.79C797.029 510.062 796.753 511.166 796.201 512.102C795.661 513.038 794.887 513.758 793.879 514.262C792.883 514.754 791.719 515 790.387 515H786.301V502.49H790.387ZM790.387 513.326C791.851 513.326 792.973 512.93 793.753 512.138C794.533 511.346 794.923 510.23 794.923 508.79C794.923 507.338 794.533 506.204 793.753 505.388C792.973 504.572 791.851 504.164 790.387 504.164H788.353V513.326H790.387ZM801.115 502.49V515H799.063V502.49H801.115ZM814.087 515H812.035L805.861 505.658V515H803.809V502.472H805.861L812.035 511.796V502.472H814.087V515ZM825.836 506.09C825.512 505.466 825.062 504.998 824.486 504.686C823.91 504.362 823.244 504.2 822.488 504.2C821.66 504.2 820.922 504.386 820.274 504.758C819.626 505.13 819.116 505.658 818.744 506.342C818.384 507.026 818.204 507.818 818.204 508.718C818.204 509.618 818.384 510.416 818.744 511.112C819.116 511.796 819.626 512.324 820.274 512.696C820.922 513.068 821.66 513.254 822.488 513.254C823.604 513.254 824.51 512.942 825.206 512.318C825.902 511.694 826.328 510.848 826.484 509.78H821.786V508.142H828.68V509.744C828.548 510.716 828.2 511.61 827.636 512.426C827.084 513.242 826.358 513.896 825.458 514.388C824.57 514.868 823.58 515.108 822.488 515.108C821.312 515.108 820.238 514.838 819.266 514.298C818.294 513.746 817.52 512.984 816.944 512.012C816.38 511.04 816.098 509.942 816.098 508.718C816.098 507.494 816.38 506.396 816.944 505.424C817.52 504.452 818.294 503.696 819.266 503.156C820.25 502.604 821.324 502.328 822.488 502.328C823.82 502.328 825.002 502.658 826.034 503.318C827.078 503.966 827.834 504.89 828.302 506.09H825.836Z" fill="black"/>
<path d="M461.848 760L458.968 754.996H457.402V760H455.35V747.49H459.67C460.63 747.49 461.44 747.658 462.1 747.994C462.772 748.33 463.27 748.78 463.594 749.344C463.93 749.908 464.098 750.538 464.098 751.234C464.098 752.05 463.858 752.794 463.378 753.466C462.91 754.126 462.184 754.576 461.2 754.816L464.296 760H461.848ZM457.402 753.358H459.67C460.438 753.358 461.014 753.166 461.398 752.782C461.794 752.398 461.992 751.882 461.992 751.234C461.992 750.586 461.8 750.082 461.416 749.722C461.032 749.35 460.45 749.164 459.67 749.164H457.402V753.358ZM468.775 749.146V752.818H473.095V754.492H468.775V758.326H473.635V760H466.723V747.472H473.635V749.146H468.775ZM485.217 751.09C484.893 750.466 484.443 749.998 483.867 749.686C483.291 749.362 482.625 749.2 481.869 749.2C481.041 749.2 480.303 749.386 479.655 749.758C479.007 750.13 478.497 750.658 478.125 751.342C477.765 752.026 477.585 752.818 477.585 753.718C477.585 754.618 477.765 755.416 478.125 756.112C478.497 756.796 479.007 757.324 479.655 757.696C480.303 758.068 481.041 758.254 481.869 758.254C482.985 758.254 483.891 757.942 484.587 757.318C485.283 756.694 485.709 755.848 485.865 754.78H481.167V753.142H488.061V754.744C487.929 755.716 487.581 756.61 487.017 757.426C486.465 758.242 485.739 758.896 484.839 759.388C483.951 759.868 482.961 760.108 481.869 760.108C480.693 760.108 479.619 759.838 478.647 759.298C477.675 758.746 476.901 757.984 476.325 757.012C475.761 756.04 475.479 754.942 475.479 753.718C475.479 752.494 475.761 751.396 476.325 750.424C476.901 749.452 477.675 748.696 478.647 748.156C479.631 747.604 480.705 747.328 481.869 747.328C483.201 747.328 484.383 747.658 485.415 748.318C486.459 748.966 487.215 749.89 487.683 751.09H485.217ZM492.136 747.49V760H490.084V747.49H492.136ZM498.952 760.126C498.112 760.126 497.356 759.982 496.684 759.694C496.012 759.394 495.484 758.974 495.1 758.434C494.716 757.894 494.524 757.264 494.524 756.544H496.72C496.768 757.084 496.978 757.528 497.35 757.876C497.734 758.224 498.268 758.398 498.952 758.398C499.66 758.398 500.212 758.23 500.608 757.894C501.004 757.546 501.202 757.102 501.202 756.562C501.202 756.142 501.076 755.8 500.824 755.536C500.584 755.272 500.278 755.068 499.906 754.924C499.546 754.78 499.042 754.624 498.394 754.456C497.578 754.24 496.912 754.024 496.396 753.808C495.892 753.58 495.46 753.232 495.1 752.764C494.74 752.296 494.56 751.672 494.56 750.892C494.56 750.172 494.74 749.542 495.1 749.002C495.46 748.462 495.964 748.048 496.612 747.76C497.26 747.472 498.01 747.328 498.862 747.328C500.074 747.328 501.064 747.634 501.832 748.246C502.612 748.846 503.044 749.674 503.128 750.73H500.86C500.824 750.274 500.608 749.884 500.212 749.56C499.816 749.236 499.294 749.074 498.646 749.074C498.058 749.074 497.578 749.224 497.206 749.524C496.834 749.824 496.648 750.256 496.648 750.82C496.648 751.204 496.762 751.522 496.99 751.774C497.23 752.014 497.53 752.206 497.89 752.35C498.25 752.494 498.742 752.65 499.366 752.818C500.194 753.046 500.866 753.274 501.382 753.502C501.91 753.73 502.354 754.084 502.714 754.564C503.086 755.032 503.272 755.662 503.272 756.454C503.272 757.09 503.098 757.69 502.75 758.254C502.414 758.818 501.916 759.274 501.256 759.622C500.608 759.958 499.84 760.126 498.952 760.126ZM513.776 747.49V749.164H510.446V760H508.394V749.164H505.046V747.49H513.776ZM522.352 760L519.472 754.996H517.906V760H515.854V747.49H520.174C521.134 747.49 521.944 747.658 522.604 747.994C523.276 748.33 523.774 748.78 524.098 749.344C524.434 749.908 524.602 750.538 524.602 751.234C524.602 752.05 524.362 752.794 523.882 753.466C523.414 754.126 522.688 754.576 521.704 754.816L524.8 760H522.352ZM517.906 753.358H520.174C520.942 753.358 521.518 753.166 521.902 752.782C522.298 752.398 522.496 751.882 522.496 751.234C522.496 750.586 522.304 750.082 521.92 749.722C521.536 749.35 520.954 749.164 520.174 749.164H517.906V753.358ZM534.769 757.444H529.531L528.631 760H526.489L530.971 747.472H533.347L537.829 760H535.669L534.769 757.444ZM534.193 755.77L532.159 749.956L530.107 755.77H534.193ZM546.276 760L543.396 754.996H541.83V760H539.778V747.49H544.098C545.058 747.49 545.868 747.658 546.528 747.994C547.2 748.33 547.698 748.78 548.022 749.344C548.358 749.908 548.526 750.538 548.526 751.234C548.526 752.05 548.286 752.794 547.806 753.466C547.338 754.126 546.612 754.576 545.628 754.816L548.724 760H546.276ZM541.83 753.358H544.098C544.866 753.358 545.442 753.166 545.826 752.782C546.222 752.398 546.42 751.882 546.42 751.234C546.42 750.586 546.228 750.082 545.844 749.722C545.46 749.35 544.878 749.164 544.098 749.164H541.83V753.358ZM561.533 760.126C560.369 760.126 559.295 759.856 558.311 759.316C557.339 758.764 556.565 758.002 555.989 757.03C555.425 756.046 555.143 754.942 555.143 753.718C555.143 752.494 555.425 751.396 555.989 750.424C556.565 749.452 557.339 748.696 558.311 748.156C559.295 747.604 560.369 747.328 561.533 747.328C562.709 747.328 563.783 747.604 564.755 748.156C565.739 748.696 566.513 749.452 567.077 750.424C567.641 751.396 567.923 752.494 567.923 753.718C567.923 754.942 567.641 756.046 567.077 757.03C566.513 758.002 565.739 758.764 564.755 759.316C563.783 759.856 562.709 760.126 561.533 760.126ZM561.533 758.344C562.361 758.344 563.099 758.158 563.747 757.786C564.395 757.402 564.899 756.862 565.259 756.166C565.631 755.458 565.817 754.642 565.817 753.718C565.817 752.794 565.631 751.984 565.259 751.288C564.899 750.592 564.395 750.058 563.747 749.686C563.099 749.314 562.361 749.128 561.533 749.128C560.705 749.128 559.967 749.314 559.319 749.686C558.671 750.058 558.161 750.592 557.789 751.288C557.429 751.984 557.249 752.794 557.249 753.718C557.249 754.642 557.429 755.458 557.789 756.166C558.161 756.862 558.671 757.402 559.319 757.786C559.967 758.158 560.705 758.344 561.533 758.344ZM577.304 747.49V749.164H571.994V752.854H576.134V754.528H571.994V760H569.942V747.49H577.304ZM586.567 747.49V749.164H581.257V752.854H585.397V754.528H581.257V760H579.205V747.49H586.567ZM590.521 747.49V760H588.469V747.49H590.521ZM592.531 753.718C592.531 752.494 592.813 751.396 593.377 750.424C593.953 749.452 594.727 748.696 595.699 748.156C596.683 747.604 597.757 747.328 598.921 747.328C600.253 747.328 601.435 747.658 602.467 748.318C603.511 748.966 604.267 749.89 604.735 751.09H602.269C601.945 750.43 601.495 749.938 600.919 749.614C600.343 749.29 599.677 749.128 598.921 749.128C598.093 749.128 597.355 749.314 596.707 749.686C596.059 750.058 595.549 750.592 595.177 751.288C594.817 751.984 594.637 752.794 594.637 753.718C594.637 754.642 594.817 755.452 595.177 756.148C595.549 756.844 596.059 757.384 596.707 757.768C597.355 758.14 598.093 758.326 598.921 758.326C599.677 758.326 600.343 758.164 600.919 757.84C601.495 757.516 601.945 757.024 602.269 756.364H604.735C604.267 757.564 603.511 758.488 602.467 759.136C601.435 759.784 600.253 760.108 598.921 760.108C597.745 760.108 596.671 759.838 595.699 759.298C594.727 758.746 593.953 757.984 593.377 757.012C592.813 756.04 592.531 754.942 592.531 753.718ZM609.189 749.146V752.818H613.509V754.492H609.189V758.326H614.049V760H607.137V747.472H614.049V749.146H609.189Z" fill="black"/>
<path d="M287.01 758.718C287.01 757.494 287.292 756.396 287.856 755.424C288.432 754.452 289.206 753.696 290.178 753.156C291.162 752.604 292.236 752.328 293.4 752.328C294.732 752.328 295.914 752.658 296.946 753.318C297.99 753.966 298.746 754.89 299.214 756.09H296.748C296.424 755.43 295.974 754.938 295.398 754.614C294.822 754.29 294.156 754.128 293.4 754.128C292.572 754.128 291.834 754.314 291.186 754.686C290.538 755.058 290.028 755.592 289.656 756.288C289.296 756.984 289.116 757.794 289.116 758.718C289.116 759.642 289.296 760.452 289.656 761.148C290.028 761.844 290.538 762.384 291.186 762.768C291.834 763.14 292.572 763.326 293.4 763.326C294.156 763.326 294.822 763.164 295.398 762.84C295.974 762.516 296.424 762.024 296.748 761.364H299.214C298.746 762.564 297.99 763.488 296.946 764.136C295.914 764.784 294.732 765.108 293.4 765.108C292.224 765.108 291.15 764.838 290.178 764.298C289.206 763.746 288.432 762.984 287.856 762.012C287.292 761.04 287.01 759.942 287.01 758.718ZM303.668 752.49V765H301.616V752.49H303.668ZM312.86 765L309.98 759.996H308.414V765H306.362V752.49H310.682C311.642 752.49 312.452 752.658 313.112 752.994C313.784 753.33 314.282 753.78 314.606 754.344C314.942 754.908 315.11 755.538 315.11 756.234C315.11 757.05 314.87 757.794 314.39 758.466C313.922 759.126 313.196 759.576 312.212 759.816L315.308 765H312.86ZM308.414 758.358H310.682C311.45 758.358 312.026 758.166 312.41 757.782C312.806 757.398 313.004 756.882 313.004 756.234C313.004 755.586 312.812 755.082 312.428 754.722C312.044 754.35 311.462 754.164 310.682 754.164H308.414V758.358ZM317.051 758.718C317.051 757.494 317.333 756.396 317.897 755.424C318.473 754.452 319.247 753.696 320.219 753.156C321.203 752.604 322.277 752.328 323.441 752.328C324.773 752.328 325.955 752.658 326.987 753.318C328.031 753.966 328.787 754.89 329.255 756.09H326.789C326.465 755.43 326.015 754.938 325.439 754.614C324.863 754.29 324.197 754.128 323.441 754.128C322.613 754.128 321.875 754.314 321.227 754.686C320.579 755.058 320.069 755.592 319.697 756.288C319.337 756.984 319.157 757.794 319.157 758.718C319.157 759.642 319.337 760.452 319.697 761.148C320.069 761.844 320.579 762.384 321.227 762.768C321.875 763.14 322.613 763.326 323.441 763.326C324.197 763.326 324.863 763.164 325.439 762.84C326.015 762.516 326.465 762.024 326.789 761.364H329.255C328.787 762.564 328.031 763.488 326.987 764.136C325.955 764.784 324.773 765.108 323.441 765.108C322.265 765.108 321.191 764.838 320.219 764.298C319.247 763.746 318.473 762.984 317.897 762.012C317.333 761.04 317.051 759.942 317.051 758.718ZM333.691 752.49V760.464C333.691 761.412 333.937 762.126 334.429 762.606C334.933 763.086 335.629 763.326 336.517 763.326C337.417 763.326 338.113 763.086 338.605 762.606C339.109 762.126 339.361 761.412 339.361 760.464V752.49H341.413V760.428C341.413 761.448 341.191 762.312 340.747 763.02C340.303 763.728 339.709 764.256 338.965 764.604C338.221 764.952 337.399 765.126 336.499 765.126C335.599 765.126 334.777 764.952 334.033 764.604C333.301 764.256 332.719 763.728 332.287 763.02C331.855 762.312 331.639 761.448 331.639 760.428V752.49H333.691ZM346.136 763.344H350.366V765H344.084V752.49H346.136V763.344ZM359.624 762.444H354.386L353.486 765H351.344L355.826 752.472H358.202L362.684 765H360.524L359.624 762.444ZM359.048 760.77L357.014 754.956L354.962 760.77H359.048ZM371.131 765L368.251 759.996H366.685V765H364.633V752.49H368.953C369.913 752.49 370.723 752.658 371.383 752.994C372.055 753.33 372.553 753.78 372.877 754.344C373.213 754.908 373.381 755.538 373.381 756.234C373.381 757.05 373.141 757.794 372.661 758.466C372.193 759.126 371.467 759.576 370.483 759.816L373.579 765H371.131ZM366.685 758.358H368.953C369.721 758.358 370.297 758.166 370.681 757.782C371.077 757.398 371.275 756.882 371.275 756.234C371.275 755.586 371.083 755.082 370.699 754.722C370.315 754.35 369.733 754.164 368.953 754.164H366.685V758.358ZM298.09 785.574C298.762 785.694 299.332 786.048 299.8 786.636C300.268 787.224 300.502 787.89 300.502 788.634C300.502 789.27 300.334 789.846 299.998 790.362C299.674 790.866 299.2 791.268 298.576 791.568C297.952 791.856 297.226 792 296.398 792H291.394V779.49H296.164C297.016 779.49 297.748 779.634 298.36 779.922C298.972 780.21 299.434 780.6 299.746 781.092C300.058 781.572 300.214 782.112 300.214 782.712C300.214 783.432 300.022 784.032 299.638 784.512C299.254 784.992 298.738 785.346 298.09 785.574ZM293.446 784.746H295.984C296.656 784.746 297.178 784.596 297.55 784.296C297.934 783.984 298.126 783.54 298.126 782.964C298.126 782.4 297.934 781.962 297.55 781.65C297.178 781.326 296.656 781.164 295.984 781.164H293.446V784.746ZM296.218 790.326C296.914 790.326 297.46 790.158 297.856 789.822C298.252 789.486 298.45 789.018 298.45 788.418C298.45 787.806 298.24 787.32 297.82 786.96C297.4 786.6 296.842 786.42 296.146 786.42H293.446V790.326H296.218ZM304.766 779.49V787.464C304.766 788.412 305.012 789.126 305.504 789.606C306.008 790.086 306.704 790.326 307.592 790.326C308.492 790.326 309.188 790.086 309.68 789.606C310.184 789.126 310.436 788.412 310.436 787.464V779.49H312.488V787.428C312.488 788.448 312.266 789.312 311.822 790.02C311.378 790.728 310.784 791.256 310.04 791.604C309.296 791.952 308.474 792.126 307.574 792.126C306.674 792.126 305.852 791.952 305.108 791.604C304.376 791.256 303.794 790.728 303.362 790.02C302.93 789.312 302.714 788.448 302.714 787.428V779.49H304.766ZM317.212 779.49V792H315.16V779.49H317.212ZM321.958 790.344H326.188V792H319.906V779.49H321.958V790.344ZM331.99 779.49C333.322 779.49 334.486 779.748 335.482 780.264C336.49 780.768 337.264 781.5 337.804 782.46C338.356 783.408 338.632 784.518 338.632 785.79C338.632 787.062 338.356 788.166 337.804 789.102C337.264 790.038 336.49 790.758 335.482 791.262C334.486 791.754 333.322 792 331.99 792H327.904V779.49H331.99ZM331.99 790.326C333.454 790.326 334.576 789.93 335.356 789.138C336.136 788.346 336.526 787.23 336.526 785.79C336.526 784.338 336.136 783.204 335.356 782.388C334.576 781.572 333.454 781.164 331.99 781.164H329.956V790.326H331.99ZM342.717 779.49V792H340.665V779.49H342.717ZM355.69 792H353.638L347.464 782.658V792H345.412V779.472H347.464L353.638 788.796V779.472H355.69V792ZM367.438 783.09C367.114 782.466 366.664 781.998 366.088 781.686C365.512 781.362 364.846 781.2 364.09 781.2C363.262 781.2 362.524 781.386 361.876 781.758C361.228 782.13 360.718 782.658 360.346 783.342C359.986 784.026 359.806 784.818 359.806 785.718C359.806 786.618 359.986 787.416 360.346 788.112C360.718 788.796 361.228 789.324 361.876 789.696C362.524 790.068 363.262 790.254 364.09 790.254C365.206 790.254 366.112 789.942 366.808 789.318C367.504 788.694 367.93 787.848 368.086 786.78H363.388V785.142H370.282V786.744C370.15 787.716 369.802 788.61 369.238 789.426C368.686 790.242 367.96 790.896 367.06 791.388C366.172 791.868 365.182 792.108 364.09 792.108C362.914 792.108 361.84 791.838 360.868 791.298C359.896 790.746 359.122 789.984 358.546 789.012C357.982 788.04 357.7 786.942 357.7 785.718C357.7 784.494 357.982 783.396 358.546 782.424C359.122 781.452 359.896 780.696 360.868 780.156C361.852 779.604 362.926 779.328 364.09 779.328C365.422 779.328 366.604 779.658 367.636 780.318C368.68 780.966 369.436 781.89 369.904 783.09H367.438Z" fill="black"/>
</svg>
